<svg width="168" height="102" viewBox="0 0 168 102" fill="none" xmlns="http://www.w3.org/2000/svg">
<path d="M117.509 89.5L160.009 48.75L117.509 8" stroke="#605DFF" stroke-width="15.28" stroke-linecap="round" stroke-linejoin="round"/>
<path d="M50.5 8L8 48.75L50.5 89.5" stroke="#605DFF" stroke-width="15.28" stroke-linecap="round" stroke-linejoin="round"/>
<g clip-path="url(#clip0_397_112)">
<path d="M105.25 24.0711L97.5374 42.1944C97.1057 43.2076 96.9279 44.3012 97.0203 45.3746L100.187 82.1304C100.283 83.2413 100.09 84.3734 99.6258 85.4152C99.162 86.457 98.4437 87.3726 97.5415 88.072C96.6394 88.7714 95.5845 89.2305 94.4807 89.404C93.3768 89.5776 92.2621 89.4597 91.2461 89.0619L74.083 81L56.1298 75.3225C55.1136 74.9252 54.231 74.2617 53.5689 73.3972C52.9069 72.5327 52.4881 71.4971 52.3538 70.3922C52.2196 69.2873 52.3744 68.1512 52.8031 67.0957C53.2319 66.0401 53.9197 65.1016 54.799 64.3723L83.8809 40.2338C84.7302 39.5288 85.4011 38.6281 85.832 37.6146L93.5449 19.4913" stroke="#605DFF" stroke-width="4.06" stroke-linecap="round" stroke-linejoin="round"/>
<path d="M66.4521 54.6973L98.9172 67.3993" stroke="#605DFF" stroke-width="3.06" stroke-linecap="round" stroke-linejoin="round"/>
<path d="M89.1533 17.7734L109.638 25.7881" stroke="#605DFF" stroke-width="4.06" stroke-linecap="round" stroke-linejoin="round"/>
<path d="M69.5014 68.4883C69.4795 69.3263 68.8222 69.8361 68.2578 69.8504C67.6935 69.8647 67.0621 69.3877 67.084 68.5496C67.106 67.7116 67.7633 67.2019 68.3276 67.1875C68.8919 67.1732 69.5234 67.6503 69.5014 68.4883ZM87.77 74.9806C87.748 75.8186 87.0907 76.3284 86.5264 76.3427C85.962 76.357 85.3306 75.88 85.3525 75.042C85.3745 74.2039 86.0318 73.6942 86.5961 73.6799C87.1605 73.6655 87.7919 74.1426 87.77 74.9806Z" fill="#D9D9D9" stroke="#605DFF" stroke-width="7"/>
</g>
<defs>
<clipPath id="clip0_397_112">
<rect width="75.4168" height="78.7851" transform="matrix(0.931259 0.364358 -0.391592 0.920139 66.8516 2)" fill="white"/>
</clipPath>
</defs>
</svg>
